<svg width="16" height="16" viewBox="0 0 16 16" fill="none" xmlns="http://www.w3.org/2000/svg">
<path d="M14.667 4.33398H10.667" stroke="#292D32" stroke-width="1.33" stroke-miterlimit="10" stroke-linecap="round" stroke-linejoin="round"/>
<path d="M3.99967 4.33398H1.33301" stroke="#292D32" stroke-width="1.33" stroke-miterlimit="10" stroke-linecap="round" stroke-linejoin="round"/>
<path d="M6.66634 6.66667C7.95501 6.66667 8.99967 5.622 8.99967 4.33333C8.99967 3.04467 7.95501 2 6.66634 2C5.37768 2 4.33301 3.04467 4.33301 4.33333C4.33301 5.622 5.37768 6.66667 6.66634 6.66667Z" stroke="#292D32" stroke-width="1.33" stroke-miterlimit="10" stroke-linecap="round" stroke-linejoin="round"/>
<path d="M14.6667 11.666H12" stroke="#292D32" stroke-width="1.33" stroke-miterlimit="10" stroke-linecap="round" stroke-linejoin="round"/>
<path d="M5.33301 11.666H1.33301" stroke="#292D32" stroke-width="1.33" stroke-miterlimit="10" stroke-linecap="round" stroke-linejoin="round"/>
<path d="M9.33333 14.0007C10.622 14.0007 11.6667 12.956 11.6667 11.6673C11.6667 10.3787 10.622 9.33398 9.33333 9.33398C8.04467 9.33398 7 10.3787 7 11.6673C7 12.956 8.04467 14.0007 9.33333 14.0007Z" stroke="#292D32" stroke-width="1.33" stroke-miterlimit="10" stroke-linecap="round" stroke-linejoin="round"/>
</svg>
