<svg width="58" height="64" viewBox="0 0 58 64" fill="none" xmlns="http://www.w3.org/2000/svg">
<path d="M50.5614 14.8598C43.9577 20.3174 39.1444 23.3347 32.0489 26.9275C31.6015 27.1541 31.4885 27.7446 31.824 28.1174L37.9902 34.9689" stroke="#0F1620" stroke-width="5.31481"/>
<path d="M39.5967 11.8115L50.7927 13.8989C51.2049 13.9757 51.4767 14.3722 51.3999 14.7844L49.1734 26.7268" stroke="#0F1620" stroke-width="5.31481" stroke-linecap="round"/>
<path d="M41.3493 34.4835L36.5158 29.3656C36.1384 28.966 35.4744 29.0875 35.263 29.5949L33.8943 32.8798C33.8422 33.0049 33.7575 33.1138 33.649 33.1952L25.4095 39.3748C24.7205 39.8916 25.2881 40.9749 26.1052 40.7025L41.0374 35.7251C41.5639 35.5496 41.7304 34.8869 41.3493 34.4835Z" fill="#0F1620"/>
<path d="M32.8951 16.3149C28.4214 15.8086 24.5513 15.8208 18.6182 16.0882C16.0022 16.2062 13.8692 18.2384 13.6427 20.8472C12.7954 30.6101 12.7938 37.5213 13.591 46.9028C13.8329 49.7499 16.3327 51.8466 19.1863 51.6974C27.6835 51.2531 33.9395 51.2645 42.15 51.688C45.0905 51.8397 47.6462 49.6106 47.7391 46.6677C47.8538 43.0328 47.7815 40.018 47.4814 35.7795" stroke="white" stroke-width="4.55556" stroke-linecap="round"/>
</svg>
